<svg xmlns="http://www.w3.org/2000/svg" xmlns:xlink="http://www.w3.org/1999/xlink" width="500" zoomAndPan="magnify" viewBox="0 0 375 374.999991" height="500" preserveAspectRatio="xMidYMid meet" version="1.0"><defs><clipPath id="b21df5c38b"><path d="M 39 38 L 338 38 L 338 337.5 L 39 337.5 Z M 39 38 " clip-rule="nonzero"/></clipPath><clipPath id="399a90d8b4"><path d="M 49.394531 85.402344 C 28.953125 131.199219 42.207031 175.777344 63.742188 199.4375 L 189.65625 337.5 L 312.917969 199.929688 C 332.945312 174.476562 339.648438 147.480469 336.359375 117.421875 C 330.46875 75.835938 300.484375 43.574219 263.445312 38.964844 C 240.726562 36.699219 218.78125 43.519531 201.65625 59.785156 C 197.042969 64.160156 192.925781 69.054688 189.332031 74.371094 C 185.074219 68.316406 180.078125 62.777344 174.425781 57.867188 C 154.730469 40.761719 129.65625 35.375 105.574219 39.253906 C 82.765625 44.289062 62.292969 61.101562 49.394531 85.402344 Z M 49.394531 85.402344 " clip-rule="nonzero"/></clipPath></defs><g clip-path="url(#b21df5c38b)"><g clip-path="url(#399a90d8b4)"><path fill="#ffda00" d="M 37.5 37.5 L 337.5 37.5 L 337.5 337.5 L 37.5 337.5 Z M 37.5 37.5 " fill-opacity="1" fill-rule="nonzero"/></g></g></svg>