<svg xmlns="http://www.w3.org/2000/svg" xmlns:xlink="http://www.w3.org/1999/xlink" width="400" zoomAndPan="magnify" viewBox="0 0 300 299.999988" height="400" preserveAspectRatio="xMidYMid meet" version="1.0"><defs><clipPath id="5636ea7e68"><path d="M 19.96875 19.96875 L 280.03125 19.96875 L 280.03125 280.03125 L 19.96875 280.03125 Z M 19.96875 19.96875 " clip-rule="nonzero"/></clipPath><clipPath id="20bed0b303"><path d="M 150 19.96875 C 78.183594 19.96875 19.96875 78.183594 19.96875 150 C 19.96875 221.816406 78.183594 280.03125 150 280.03125 C 221.816406 280.03125 280.03125 221.816406 280.03125 150 C 280.03125 78.183594 221.816406 19.96875 150 19.96875 Z M 150 19.96875 " clip-rule="nonzero"/></clipPath><clipPath id="eb0b7de079"><path d="M 76 76 L 224 76 L 224 221 L 76 221 Z M 76 76 " clip-rule="nonzero"/></clipPath><clipPath id="b08745621a"><path d="M 82.1875 99.863281 C 69.371094 122.351562 78.660156 144.242188 89.234375 155.863281 L 147.015625 219.226562 C 148.050781 220.359375 149.515625 221.003906 151.046875 220.996094 C 152.582031 220.988281 154.039062 220.335938 155.0625 219.191406 L 211.582031 156.105469 C 221.417969 143.605469 225.40625 130.347656 223.09375 115.585938 C 220.199219 95.164062 205.476562 79.320312 187.289062 77.058594 C 176.136719 75.6875 165.359375 79.292969 156.949219 87.28125 C 154.6875 89.429688 152.664062 91.835938 150.898438 94.445312 C 148.808594 91.472656 146.355469 88.753906 143.582031 86.339844 C 133.910156 77.941406 121.597656 74.605469 109.773438 77.199219 C 98.574219 79.671875 88.523438 87.929688 82.1875 99.863281 Z M 82.1875 99.863281 " clip-rule="nonzero"/></clipPath><clipPath id="77c93efb92"><path d="M 76.347656 76.339844 L 223.347656 76.339844 L 223.347656 221 L 76.347656 221 Z M 76.347656 76.339844 " clip-rule="nonzero"/></clipPath><clipPath id="7ad015f976"><path d="M 82.1875 99.863281 C 69.371094 122.351562 78.660156 144.242188 89.230469 155.859375 L 147.011719 219.21875 C 148.042969 220.351562 149.507812 220.996094 151.042969 220.988281 C 152.574219 220.980469 154.035156 220.328125 155.058594 219.183594 L 211.570312 156.101562 C 221.40625 143.601562 225.394531 130.347656 223.082031 115.585938 C 220.191406 95.167969 205.46875 79.324219 187.28125 77.0625 C 176.128906 75.6875 165.355469 79.296875 156.945312 87.285156 C 154.679688 89.433594 152.65625 91.835938 150.894531 94.445312 C 148.800781 91.472656 146.351562 88.753906 143.574219 86.34375 C 133.90625 77.941406 121.59375 74.609375 109.773438 77.203125 C 98.574219 79.675781 88.519531 87.929688 82.1875 99.863281 Z M 82.1875 99.863281 " clip-rule="nonzero"/></clipPath></defs><g clip-path="url(#5636ea7e68)"><g clip-path="url(#20bed0b303)"><path fill="#ffda00" d="M 19.96875 19.96875 L 280.03125 19.96875 L 280.03125 280.03125 L 19.96875 280.03125 Z M 19.96875 19.96875 " fill-opacity="1" fill-rule="nonzero"/></g></g><g clip-path="url(#eb0b7de079)"><g clip-path="url(#b08745621a)"><path fill="#ffffff" d="M 76.347656 76.339844 L 223.652344 76.339844 L 223.652344 223.660156 L 76.347656 223.660156 Z M 76.347656 76.339844 " fill-opacity="1" fill-rule="nonzero"/></g></g><g clip-path="url(#77c93efb92)"><g clip-path="url(#7ad015f976)"><path stroke-linecap="butt" transform="matrix(0.75, 0, 0, 0.75, 76.348169, 76.341512)" fill="none" stroke-linejoin="miter" d="M 7.785776 31.362361 C -9.302767 61.346739 3.08265 90.534241 17.176402 106.023826 L 94.218075 190.502999 C 95.593075 192.013416 97.5462 192.872791 99.593075 192.862375 C 101.634742 192.851958 103.582659 191.982166 104.947242 190.456124 L 180.296207 106.346742 C 193.410791 89.680074 198.7285 72.008198 195.645166 52.325905 C 191.790999 25.101944 172.160789 3.976942 147.910787 0.961317 C 133.040994 -0.872016 118.67641 3.940484 107.462867 14.591527 C 104.442034 17.45611 101.744117 20.659235 99.395158 24.138402 C 96.603491 20.17486 93.337866 16.54986 89.634741 13.336318 C 76.744115 2.133192 60.327447 -2.309516 44.567029 1.148817 C 29.634736 4.445692 16.228485 15.450902 7.785776 31.362361 Z M 7.785776 31.362361 " stroke="#ffda00" stroke-width="6" stroke-opacity="1" stroke-miterlimit="4"/></g></g></svg>