<svg xmlns="http://www.w3.org/2000/svg" xmlns:xlink="http://www.w3.org/1999/xlink" width="100" zoomAndPan="magnify" viewBox="0 0 75 74.999997" height="100" preserveAspectRatio="xMidYMid meet" version="1.0"><defs><clipPath id="ba724794f9"><path d="M 13 13.191406 L 61.808594 13.191406 L 61.808594 60.152344 L 13 60.152344 Z M 13 13.191406 " clip-rule="nonzero"/></clipPath><clipPath id="06c0715647"><path d="M 15.796875 21.453125 C 11.695312 28.652344 14.667969 35.65625 18.054688 39.375 L 36.324219 59.410156 C 36.710938 59.835938 37.257812 60.078125 37.835938 60.074219 C 38.410156 60.070312 38.957031 59.824219 39.339844 59.398438 L 57.207031 39.453125 C 60.355469 35.453125 61.632812 31.210938 60.890625 26.488281 C 59.964844 19.953125 55.253906 14.882812 49.433594 14.15625 C 45.863281 13.71875 42.414062 14.871094 39.722656 17.429688 C 39 18.117188 38.351562 18.886719 37.789062 19.722656 C 37.117188 18.769531 36.332031 17.898438 35.445312 17.128906 C 32.351562 14.4375 28.410156 13.371094 24.625 14.203125 C 21.042969 14.992188 17.824219 17.636719 15.796875 21.453125 Z M 15.796875 21.453125 " clip-rule="nonzero"/></clipPath><clipPath id="a7b085082d"><path d="M 13.929688 13.929688 L 61.179688 13.929688 L 61.179688 60.226562 L 13.929688 60.226562 Z M 13.929688 13.929688 " clip-rule="nonzero"/></clipPath><clipPath id="4748347e6e"><path d="M 15.796875 21.457031 C 11.695312 28.652344 14.667969 35.65625 18.050781 39.375 L 36.320312 59.40625 C 36.707031 59.832031 37.253906 60.070312 37.832031 60.070312 C 38.40625 60.066406 38.953125 59.820312 39.335938 59.390625 L 57.199219 39.453125 C 60.347656 35.453125 61.625 31.210938 60.882812 26.488281 C 59.957031 19.953125 55.246094 14.882812 49.425781 14.160156 C 45.859375 13.71875 42.410156 14.875 39.71875 17.429688 C 38.996094 18.117188 38.347656 18.886719 37.785156 19.722656 C 37.113281 18.773438 36.328125 17.902344 35.441406 17.128906 C 32.347656 14.441406 28.410156 13.375 24.625 14.203125 C 21.042969 14.996094 17.824219 17.636719 15.796875 21.457031 Z M 15.796875 21.457031 " clip-rule="nonzero"/></clipPath></defs><g clip-path="url(#ba724794f9)"><g clip-path="url(#06c0715647)"><path fill="#ffda00" d="M 13.929688 13.925781 L 61.070312 13.925781 L 61.070312 61.074219 L 13.929688 61.074219 Z M 13.929688 13.925781 " fill-opacity="1" fill-rule="nonzero"/></g></g><g clip-path="url(#a7b085082d)"><g clip-path="url(#4748347e6e)"><path stroke-linecap="butt" transform="matrix(0.75, 0, 0, 0.75, 13.929459, 13.929437)" fill="none" stroke-linejoin="miter" d="M 2.489887 10.036792 C -2.978863 19.630543 0.984679 28.969084 5.495096 33.927418 L 29.854471 60.635752 C 30.370096 61.20346 31.099263 61.521168 31.870096 61.521168 C 32.635721 61.51596 33.364888 61.187835 33.875305 60.614918 L 57.693013 34.031585 C 61.89093 28.698251 63.594055 23.042001 62.604472 16.745126 C 61.370097 8.031584 55.088847 1.271167 47.32843 0.307626 C 42.573221 -0.280916 37.974263 1.260751 34.385721 4.667001 C 33.42218 5.583667 32.557596 6.609709 31.807596 7.724292 C 30.911763 6.458667 29.864888 5.297209 28.682596 4.265959 C 24.557596 0.682626 19.307596 -0.739249 14.260721 0.364917 C 9.484679 1.422209 5.193012 4.943042 2.489887 10.036792 Z M 2.489887 10.036792 " stroke="#ffda00" stroke-width="2" stroke-opacity="1" stroke-miterlimit="4"/></g></g></svg>